<svg width="120" height="65" viewBox="0 0 120 65" fill="none" xmlns="http://www.w3.org/2000/svg">
<g clip-path="url(#clip0_17_128)">
<g filter="url(#filter0_d_17_128)">
<path fill-rule="evenodd" clip-rule="evenodd" d="M112.718 33.7915C112.718 33.7231 112.718 33.6616 112.718 33.5932C113.501 33.3744 112.977 33.6 113.344 32.3282C112.956 31.8769 112.595 31.453 112.316 31.1453C112.779 30.5094 112.37 30.0787 112.909 29.6274C113.624 28.7385 112.459 27.8838 112.098 27.0906C112.241 27.0154 112.834 25.6889 113.106 25.5317C112.057 25.012 113.018 24.8274 112.084 24.424C111.349 24.1505 112.793 22.8445 113.174 22.318C113.208 22.2428 113.692 17.8188 113.644 17.7641C112.064 15.1522 112.282 13.1556 108.719 12.1368C108.133 11.4052 108.385 12.1983 107.616 12.1983C106.832 12.3009 107.343 11.8838 106.805 11.412C106.716 11.5761 106.451 11.7197 106.458 11.706C105.402 11.3915 105.647 11.4599 104.625 11.159C104.843 11.0769 103.78 10.6599 103.937 10.5983C102.663 8.69746 102.139 11.5351 101.24 9.36755C101.035 9.51114 100.858 9.63421 100.756 9.70259C98.181 8.58806 95.0747 9.68208 92.7178 7.9043C86.1646 7.15216 79.2232 6.53678 72.7859 5.00515C72.1388 5.64105 71.4167 5.49746 70.6469 5.16926C69.9589 4.91626 69.23 5.57951 68.6238 4.9231C68.2287 4.45131 67.3431 4.62225 66.948 5.1419C66.8186 4.9778 66.6892 4.80686 66.5529 4.64276C66.5529 4.72481 66.5529 4.80686 66.5529 4.89575C65.7423 5.28549 65.0475 5.23763 64.2369 4.78635C64.1756 4.90943 64.087 4.89575 63.944 5.16242C63.7532 4.88891 63.0652 4.91626 62.7246 4.9231C61.9617 4.92994 61.2464 4.56071 60.4698 4.67695C59.1824 3.89746 59.6047 4.41028 58.2559 4.47182C57.8813 4.10943 57.8881 4.43763 57.5271 4.60857C57.3976 4.45131 57.4794 4.05473 57.1592 4.12994C57.0298 4.37609 56.9072 4.19831 56.7096 4.57438C56.1715 4.5402 55.5175 4.50601 54.6865 4.45814C54.4412 4.69062 53.4875 4.75216 53.1742 4.28037C52.6974 4.21883 52.3499 4.17096 51.9889 4.1231C51.2328 4.60173 50.7151 4.66327 49.8568 4.72481C49.3527 4.73849 48.8963 5.08037 49.1892 4.3419C49.2573 4.16413 47.7246 4.73165 47.0979 4.54703C46.7164 4.43079 46.3486 4.10943 45.9262 4.42396C45.9194 4.43079 45.7014 4.20515 45.6129 4.06156C45.5311 3.93165 45.4903 4.20515 45.4358 4.06156C45.3881 4.0684 45.3404 4.07524 45.2927 4.08891C45.2791 4.31455 45.2723 4.10943 45.2587 4.30088C44.5502 4.29404 43.1265 4.97096 43.4126 4.02737C43.4399 3.85643 42.7995 4.00686 43.1061 4.1231C43.0175 4.32139 42.9426 4.47182 42.8745 4.62908C42.2273 4.12994 40.8445 4.10943 40.3336 4.5949C40.2042 4.44447 40.0747 4.30088 39.9113 4.10259C39.7478 4.33507 39.6251 4.51284 39.414 4.80686C39.2164 3.80857 38.8213 4.43079 38.4467 4.56755C38.3036 4.21199 38.1742 4.33507 38.0039 3.9043C37.7995 4.84789 37.2478 4.54703 37.2614 4.29404C37.1865 4.25302 37.1115 4.20515 37.0366 4.16413C36.8527 4.45131 36.6756 4.0684 36.4644 4.38977C35.5243 4.47638 34.934 4.33735 34.6933 3.97267C34.9657 3.98635 33.1129 3.69233 32.963 3.8496C32.8949 3.92481 33.1197 4.25302 33.1197 4.2325C32.82 4.1778 30.5652 4.62225 30.6469 4.6496C29.339 4.62225 27.9494 4.34874 26.6551 4.41712C25.5311 4.0137 24.6388 4.51284 23.6919 4.759C22.7723 4.50601 21.8663 4.47182 20.9671 4.65643C16.0489 4.17096 18.038 5.88037 13.8963 6.63934C11.8731 7.00173 10.1156 7.77438 8.11288 8.23934C8.03795 8.25302 8.75321 8.6496 8.75321 8.63592C8.6306 8.61541 8.49436 8.73849 8.51479 8.82054C8.25594 8.89575 8.68509 9.05302 8.42624 9.06669C7.84722 9.07353 7.29545 9.06669 6.72324 8.90259C7.42487 9.14874 6.06929 11.0838 5.93986 11.7607C5.75594 12.718 8.33768 12.2462 8.8622 13.0188C9.02569 13.2581 5.98073 14.9881 5.88536 15.1863C5.45621 16.0342 4.29817 16.8342 4.884 17.6479C4.95212 17.7436 4.29136 17.9693 4.2573 18.0992C3.56929 19.8017 5.36084 19.6445 5.87174 20.547C5.45621 22.0923 6.93441 22.906 5.81043 23.7539C11.1851 23.118 5.06793 26.0376 4.94531 26.3658C4.75457 26.8034 5.09517 27.1795 4.9385 27.5829C4.99981 28.2804 6.44395 28.1299 5.40852 29.1214C4.72733 29.1966 4.31861 29.8325 3.71915 30.147C3.31724 30.3932 3.78046 30.5231 3.37855 30.7556C3.71234 31.0496 4.04613 31.3436 4.51615 31.7607C3.54204 32.0821 4.10062 32.2257 3.14694 32.547C3.50798 32.8205 3.00389 33.2103 3.37855 33.4975C3.35812 33.5863 6.05566 33.347 6.03523 33.4359C5.74231 33.5248 6.31452 33.4838 6.03523 33.6C5.83087 33.6821 4.14831 33.9693 4.12106 34.1197C4.04613 34.4342 7.56793 34.0581 7.73141 34.2291C8.11288 34.6188 5.77637 35.6445 6.15784 35.8975C5.79681 36.3214 3.34449 37.1009 2.95621 37.5932C3.22188 37.771 3.48754 37.9487 3.73278 38.1128C3.77365 38.0718 3.92351 38.1744 4.01888 38.2769C4.86357 39.0838 4.48891 39.5624 3.71915 40.4376C3.5761 40.6428 5.06111 41.9693 4.72051 41.8599C4.87038 41.9009 2.90171 42.4616 2.8949 42.571C3.01752 42.9265 4.09381 42.8718 2.99708 43.1658C2.99708 43.2069 3.0107 43.2411 3.01752 43.2821C3.29681 43.3094 2.7246 43.5077 3.00389 43.5351C3.00389 43.6103 3.01752 43.6787 3.02433 43.7539C2.75866 43.8906 3.28318 43.7949 3.09245 44.0137C2.79953 44.4376 2.71779 45.012 3.34449 45.012C3.39218 44.9231 3.5216 44.8957 3.63741 44.9094C3.88264 44.9299 3.84858 44.9641 4.03931 44.9094C4.93169 46.6393 6.01479 48.4171 5.25185 50.4958C5.36765 50.7966 6.08972 50.8992 6.00798 51.2479C5.79681 51.3983 8.82814 50.4547 8.59654 50.6393C9.01888 50.7966 6.10335 52.0274 6.40989 52.1505C6.49844 52.3077 6.52569 52.4923 6.58019 52.6564C6.47801 52.6906 6.38264 52.7317 6.28046 52.7658C6.03523 53.6 6.96847 54.4684 5.7355 55.0496C7.47256 54.7487 6.80498 54.7693 6.7573 56.2462C7.37719 56.171 8.05839 56.1368 8.73959 56.0069C9.49572 55.8633 8.59654 57.012 9.33904 56.718C14.5434 54.7351 15.4017 55.959 11.2736 57.1282C10.8104 57.265 11.3145 57.6 11.6483 57.8804C12.1456 58.2975 13.2627 58.0171 13.5761 57.4428C13.6919 57.6274 13.8009 57.7983 13.9099 57.9624C13.8281 57.9624 13.7532 57.9624 13.6715 57.9556C13.5216 58.3316 12.6088 58.0445 12.6088 58.3932C12.8745 59.665 15.2178 58.7282 16.369 58.4684C17.0707 58.2086 17.7927 58.9265 18.5012 58.653C19.4548 58.2906 20.4698 58.694 21.4508 58.4821C23.9644 58.0923 26.3826 57.6205 28.8009 56.7522C30.0679 56.506 31.2668 56.5881 32.493 56.5881C34.2573 56.465 36.0284 55.6718 37.7927 55.7744C40.6674 55.6445 45.2655 56.2188 47.6565 55.1932C47.854 55.2205 48.0924 55.3231 48.2423 55.2479C49.3459 54.7009 50.3881 55.3846 51.4984 55.118C53.4399 54.9881 55.4426 55.6308 57.4112 55.1248C59.2505 55.8564 60.0202 54.6325 61.3009 55.1522C62.023 55.5282 62.493 55.5214 62.9221 55.077C63.6374 55.1727 64.2505 55.3094 64.8636 55.3299C65.3472 55.3505 65.9126 55.0564 66.3077 55.2137C67.6292 55.747 68.9576 55.5829 70.2927 55.5693C74.8159 55.3983 79.2709 56.3419 83.617 56.1641C84.7001 56.1368 85.6878 57.265 86.7573 57.2581C87.5339 57.2513 88.3513 56.6428 89.1279 56.6496C89.7137 56.6701 90.463 57.0667 90.933 56.7795C92.1115 57.2376 93.0652 58.024 94.3527 57.7573C94.884 58.0171 95.429 57.9829 95.8785 58.0855C96.0148 57.9624 96.1374 57.8257 96.2532 57.7026C96.2941 57.7026 96.3281 57.7026 96.369 57.7026C96.5529 57.8735 97.0366 57.9146 97.527 57.853C97.8881 58.4684 97.7178 58.3522 98.3513 58.2975C98.617 58.3453 98.9099 58.0034 99.1755 58.0513C101.43 58.4958 104.06 58.3043 106.253 58.4C106.478 57.6821 106.226 57.4975 105.613 56.8479C105.817 56.7795 106.199 56.8 106.376 56.7727C106.648 56.6154 107.118 55.2411 107.459 54.865C109.101 53.053 108.501 53.3197 108.733 52.9436C109.85 53.3607 109.612 51.1522 109.428 50.8992C109.148 50.5026 107.575 48.4103 107.486 47.2137C107.473 46.2428 109.646 46.4205 109.605 45.4428C109.673 44.1915 110.96 43.6445 112.03 43.5351C113.154 43.5351 112.282 42.4205 112.329 41.7505C113.229 40.5744 112.697 41.0188 112.445 39.7949C112.643 39.1932 111.791 38.5915 112.057 37.9966C113.494 36.7727 114.482 36.7453 114.148 34.4684C113.753 34.2701 113.27 34.024 112.779 33.7778L112.718 33.7915Z" fill="white"/>
</g>
<path d="M53.9373 44.4308C52.0095 44.4308 50.0954 44.2188 48.2357 43.8017C48.0722 43.7676 47.936 43.6513 47.8747 43.5009C47.8066 43.3505 47.8202 43.1727 47.9019 43.0291L50.4973 38.6393C50.5927 38.4821 50.763 38.3864 50.9401 38.3864C50.9741 38.3864 51.0014 38.3864 51.0286 38.3932C51.9619 38.5505 52.9292 38.6325 53.9169 38.6325C59.2984 38.6325 64.4142 36.2257 66.6417 32.6564C67.3433 31.5351 68.0109 29.6821 67.6022 28.1436C67.3842 27.3231 66.8801 26.6872 66.1104 26.277C65.7561 26.106 65.3815 26.0171 64.9932 26.0171C61.5259 26.0171 57.3978 32.8479 56.2194 34.947C55.9196 35.4804 55.8379 35.5966 55.3134 35.7676L51.4442 37.0393C51.3897 37.0599 51.3352 37.0667 51.2807 37.0667C51.1717 37.0667 51.0695 37.0325 50.9809 36.971C50.8447 36.8752 50.7698 36.7248 50.763 36.5607L50.3883 21.477L50.1499 12.1778C50.1431 11.9043 50.3542 11.665 50.6335 11.6445L56.0218 11.2411C56.0218 11.2411 56.0491 11.2411 56.0627 11.2411C56.1921 11.2411 56.3147 11.2889 56.4101 11.3778C56.5123 11.4735 56.5804 11.6103 56.5804 11.7539L56.8937 24.8479C58.8011 21.7915 62.5954 19.7334 66.3352 19.7334C68.0245 19.7334 69.6049 20.1641 70.9128 20.9846C73.7739 22.7829 74.4142 25.6958 74.4414 27.8223C74.4823 30.3522 73.6649 33.1966 72.2616 35.4394C68.8011 40.9983 61.7779 44.4513 53.9373 44.4513V44.4308Z" fill="#2F87FF"/>
<path d="M39.0737 44.2872C38.7944 44.2872 38.5628 44.0616 38.556 43.7812L38.4197 39.0975C37.2617 40.3351 34.1214 43.0701 31.8053 43.5966C30.8039 43.8223 29.8366 43.9385 28.9102 43.9385C26.2603 43.9385 24.0805 43.0154 22.6091 41.2582C20.9538 39.2821 20.3475 36.3624 20.9197 33.0325C21.7712 28.0547 25.9538 24.5334 27.7113 23.2479C31.0969 20.7727 36.4988 19.2342 41.8053 19.2342C43.6786 19.2342 45.4361 19.4257 47.0165 19.8017C47.1731 19.8428 47.3094 19.9522 47.3775 20.1026C47.4456 20.253 47.432 20.424 47.3503 20.5744L44.7276 25.0804C44.6323 25.2376 44.462 25.3402 44.278 25.3402C44.2576 25.3402 44.2372 25.3402 44.2099 25.3402C43.2971 25.224 42.4729 25.1282 41.5873 25.1282C41.1854 25.1282 40.7426 25.1419 40.1909 25.1829C38.8012 25.2787 37.5955 25.477 36.1718 25.8394C32.8612 26.6872 30.0274 28.6838 28.3925 31.3094C27.3639 32.9505 27.2004 34.9197 27.9701 36.3146C28.4674 37.2171 29.3053 37.7299 30.2726 37.7299C31.1173 37.7299 32.0233 37.3607 32.9565 36.6291C35.5042 34.6599 37.9361 30.6599 39.1554 28.4445C39.2167 28.3282 39.3257 28.2394 39.4483 28.1983L43.8693 26.7761C43.9238 26.7624 43.9783 26.7488 44.026 26.7488C44.135 26.7488 44.2372 26.7829 44.3257 26.8445C44.462 26.9402 44.5369 27.0975 44.5437 27.2616L44.7889 43.6445C44.7889 43.9317 44.5642 44.1641 44.278 44.171L39.0601 44.2872H39.0737Z" fill="#2F87FF"/>
<path d="M85.8447 44.3966C83.9714 44.3966 82.2684 43.9795 80.9333 43.1863C78.733 41.8804 77.1935 39.7607 76.5872 37.2103C76.0627 34.9675 76.0218 31.3778 78.8556 26.9812C81.3079 23.1658 86.124 19.3026 90.579 19.3026C91.9891 19.3026 93.3106 19.6855 94.5027 20.4308C97.2275 22.1402 98.4264 25.8735 97.173 28.7453C97.0845 28.9368 96.9006 29.053 96.6962 29.053C96.6417 29.053 96.594 29.053 96.5463 29.0325L91.5191 27.5009C91.2875 27.4325 91.1376 27.2137 91.1512 26.9744C91.1921 26.2428 91.0491 25.6684 90.7289 25.306C90.47 25.0051 90.1022 24.8479 89.639 24.8479C88.2698 24.8479 86.3829 26.2701 84.9523 28.3761C83.1948 30.9607 83.0382 33.8393 83.6376 35.4188C84.1281 36.718 85.1499 37.5658 86.669 37.9419C86.9891 38.0239 87.3502 38.065 87.7384 38.065C89.5981 38.065 91.8052 37.1624 93.0245 36.2667C93.1131 36.2051 93.2221 36.1641 93.3311 36.1641C93.372 36.1641 93.4196 36.1641 93.4605 36.1846C93.6104 36.2188 93.733 36.3282 93.8011 36.4718L95.6948 40.6359C95.8038 40.8684 95.7221 41.1556 95.5041 41.2923C92.3774 43.2957 88.9442 44.4034 85.8447 44.4034V44.3966Z" fill="#2F87FF"/>
<path d="M76.5057 44.5265C75.5588 43.4188 74.6256 42.1675 74.0057 41.0052C73.8422 40.6975 73.379 40.7111 73.0724 41.0052C69.101 44.8274 64.2645 46.7146 59.1283 47.2C53.8354 47.6992 49.1351 46.6804 46.9757 46.1881C46.3354 46.0445 46.1174 46.7214 46.7918 47.1658C49.6801 49.053 56.4171 50.4684 61.6078 50.4684C65.1569 50.4684 68.0043 49.9146 70.6133 48.6838C71.349 49.9487 72.6569 50.4684 74.067 50.4684C77.3231 50.4684 78.3722 46.7214 76.4989 44.5265H76.5057Z" fill="#00109F"/>
</g>
<defs>
<filter id="filter0_d_17_128" x="0.820606" y="1.75319" width="119.543" height="63.4415" filterUnits="userSpaceOnUse" color-interpolation-filters="sRGB">
<feFlood flood-opacity="0" result="BackgroundImageFix"/>
<feColorMatrix in="SourceAlpha" type="matrix" values="0 0 0 0 0 0 0 0 0 0 0 0 0 0 0 0 0 0 127 0" result="hardAlpha"/>
<feOffset dx="2.05" dy="2.05"/>
<feGaussianBlur stdDeviation="2.05"/>
<feColorMatrix type="matrix" values="0 0 0 0 0.184314 0 0 0 0 0.529412 0 0 0 0 1 0 0 0 0.3 0"/>
<feBlend mode="normal" in2="BackgroundImageFix" result="effect1_dropShadow_17_128"/>
<feBlend mode="normal" in="SourceGraphic" in2="effect1_dropShadow_17_128" result="shape"/>
</filter>
<clipPath id="clip0_17_128">
<rect width="120" height="64" fill="white" transform="translate(0 0.888916)"/>
</clipPath>
</defs>
</svg>
