<svg width="16" height="16" viewBox="0 0 16 16" fill="none" xmlns="http://www.w3.org/2000/svg">
<path fill-rule="evenodd" clip-rule="evenodd" d="M4.55187 0.320312C2.07194 0.320312 0.0488281 2.34342 0.0488281 4.82336V11.3309C0.0488281 13.8108 2.07194 15.8339 4.55187 15.8339H11.0594C13.5393 15.8339 15.5624 13.8108 15.5624 11.3309V4.82336C15.5624 2.34342 13.5393 0.320312 11.0594 0.320312H4.55187ZM4.55178 1.51358H11.0593C12.8936 1.51358 14.369 2.98662 14.369 4.82327V11.3308C14.369 13.1651 12.8959 14.6405 11.0593 14.6405H4.55178C2.71747 14.6405 1.24209 13.1674 1.24209 11.3308V4.82327C1.24209 2.98895 2.71514 1.51358 4.55178 1.51358ZM12.2807 2.70726C11.7865 2.70726 11.3857 3.10815 11.3857 3.60227C11.3857 4.0964 11.7865 4.49729 12.2807 4.49729C12.7748 4.49729 13.1757 4.0964 13.1757 3.60227C13.1757 3.10815 12.7748 2.70726 12.2807 2.70726ZM7.80578 3.90052C5.50531 3.90052 3.62903 5.77679 3.62903 8.07726C3.62903 10.3777 5.50531 12.254 7.80578 12.254C10.1062 12.254 11.9825 10.3777 11.9825 8.07726C11.9825 5.77679 10.1062 3.90052 7.80578 3.90052ZM7.80568 5.09378C9.46053 5.09378 10.7891 6.42232 10.7891 8.07717C10.7891 9.73202 9.46053 11.0606 7.80568 11.0606C6.15084 11.0606 4.8223 9.73202 4.8223 8.07717C4.8223 6.42232 6.15084 5.09378 7.80568 5.09378Z" fill="white"/>
</svg>
