<svg width="194" height="101" viewBox="0 0 194 101" fill="none" xmlns="http://www.w3.org/2000/svg">
<g filter="url(#filter0_d_17_147)">
<path fill-rule="evenodd" clip-rule="evenodd" d="M185.261 52.6816C185.261 52.5678 185.261 52.4655 185.261 52.3518C186.564 51.9879 185.691 52.3631 186.303 50.248C185.657 49.4975 185.057 48.7924 184.592 48.2807C185.363 47.2231 184.683 46.5067 185.578 45.7562C186.767 44.2779 184.83 42.8564 184.23 41.5373C184.468 41.4122 185.453 39.2061 185.906 38.9445C184.162 38.0803 185.759 37.7732 184.207 37.1023C182.983 36.6474 185.385 34.4754 186.02 33.5998C186.076 33.4747 186.881 26.1172 186.801 26.0262C184.173 21.6822 184.536 18.3617 178.61 16.6673C177.636 15.4505 178.055 16.7697 176.775 16.7697C175.472 16.9402 176.322 16.2466 175.427 15.4619C175.28 15.7348 174.838 15.9736 174.849 15.9509C173.093 15.4278 173.501 15.5415 171.802 15.0412C172.164 14.9047 170.397 14.211 170.657 14.1087C168.539 10.9473 167.667 15.6666 166.171 12.0618C165.831 12.3006 165.537 12.5053 165.367 12.619C161.084 10.7654 155.918 12.5849 151.998 9.62822C141.1 8.37734 129.555 7.35388 118.849 4.80661C117.773 5.86418 116.572 5.62538 115.292 5.07954C114.148 4.65878 112.936 5.76184 111.927 4.67015C111.27 3.88551 109.797 4.1698 109.14 5.03405C108.925 4.76113 108.71 4.47683 108.483 4.20391C108.483 4.34037 108.483 4.47683 108.483 4.62467C107.135 5.27286 105.98 5.19325 104.631 4.44272C104.529 4.64741 104.382 4.62467 104.144 5.06816C103.827 4.6133 102.683 4.65878 102.116 4.67015C100.847 4.68153 99.6579 4.06745 98.3663 4.26077C96.2251 2.9644 96.9276 3.81727 94.6844 3.91962C94.0613 3.31692 94.0726 3.86276 93.4722 4.14705C93.2569 3.88551 93.3929 3.22595 92.8604 3.35103C92.6451 3.76042 92.4412 3.46475 92.1127 4.0902C91.2177 4.03334 90.1301 3.97648 88.7479 3.89688C88.3401 4.28352 86.754 4.38586 86.2329 3.60121C85.4398 3.49887 84.862 3.41926 84.2616 3.33966C83.0041 4.13568 82.1431 4.23803 80.7156 4.34037C79.8772 4.36312 79.1182 4.9317 79.6053 3.70356C79.7186 3.40789 77.1696 4.35175 76.1273 4.04471C75.4929 3.85139 74.8811 3.31692 74.1787 3.84002C74.1674 3.85139 73.8048 3.47612 73.6576 3.23732C73.5216 3.02125 73.4536 3.47612 73.363 3.23732C73.2837 3.24869 73.2044 3.26006 73.1251 3.2828C73.1024 3.65807 73.0911 3.31692 73.0684 3.63533C71.8902 3.62396 69.5224 4.74976 69.9982 3.18046C70.0436 2.89617 68.9786 3.14634 69.4884 3.33966C69.3412 3.66944 69.2165 3.91962 69.1032 4.18117C68.027 3.35103 65.7272 3.31692 64.8775 4.12431C64.6622 3.87413 64.447 3.63533 64.1751 3.30555C63.9032 3.69219 63.6993 3.98785 63.3481 4.47683C63.0195 2.81656 62.3624 3.85139 61.7393 4.07882C61.5014 3.4875 61.2862 3.69219 61.0029 2.97577C60.6631 4.54506 59.7454 4.04471 59.7681 3.62396C59.6434 3.55573 59.5188 3.47612 59.3942 3.40789C59.0883 3.88551 58.7938 3.24869 58.4426 3.78316C56.8791 3.9272 55.8973 3.69598 55.497 3.08949C55.9501 3.11223 52.8686 2.62324 52.6194 2.88479C52.5061 3.00988 52.88 3.55573 52.88 3.52161C52.3815 3.43064 48.6315 4.1698 48.7675 4.21528C46.5923 4.1698 44.2812 3.71493 42.1286 3.82865C40.2593 3.15771 38.7752 3.98785 37.2005 4.39723C35.671 3.97648 34.1643 3.91962 32.6688 4.22666C24.4892 3.41926 27.7973 6.26219 20.9092 7.52446C17.5444 8.12716 14.6215 9.41216 11.2908 10.1854C11.1662 10.2082 12.3557 10.8677 12.3557 10.845C12.1518 10.8109 11.9252 11.0156 11.9592 11.152C11.5287 11.2771 12.2424 11.5387 11.8119 11.5614C10.8489 11.5728 9.93128 11.5614 8.97963 11.2885C10.1465 11.6979 7.89204 14.9161 7.67679 16.0419C7.3709 17.6339 11.6646 16.8493 12.537 18.1343C12.8089 18.5323 7.74476 21.4093 7.58615 21.7391C6.87242 23.1492 4.94647 24.4797 5.92077 25.8329C6.03406 25.9921 4.93514 26.3674 4.87849 26.5835C3.73425 29.415 6.71381 29.1535 7.56349 30.6545C6.87242 33.2245 9.33084 34.5778 7.46153 35.9879C16.4002 34.9303 6.22666 39.786 6.02274 40.3319C5.70552 41.0597 6.27198 41.6851 6.01141 42.356C6.11337 43.5159 8.51514 43.2658 6.79312 44.9147C5.6602 45.0398 4.98046 46.0973 3.98349 46.6204C3.31508 47.0298 4.08546 47.2459 3.41704 47.6325C3.97217 48.1215 4.52729 48.6105 5.309 49.3042C3.68894 49.8386 4.61792 50.0774 3.03185 50.6119C3.63229 51.0668 2.79394 51.715 3.41704 52.1926C3.38305 52.3404 7.86938 51.9424 7.83539 52.0902C7.34824 52.2381 8.29989 52.1698 7.83539 52.3631C7.49552 52.4996 4.69723 52.9772 4.65191 53.2274C4.52729 53.7505 10.3844 53.125 10.6563 53.4093C11.2908 54.0575 7.40489 55.7633 8.03932 56.184C7.43887 56.8891 3.36039 58.1855 2.71463 59.0042C3.15647 59.2999 3.5983 59.5956 4.00615 59.8685C4.07413 59.8002 4.32337 59.9708 4.48198 60.1414C5.88679 61.4833 5.26368 62.2793 3.98349 63.7349C3.74558 64.076 6.21533 66.2821 5.64887 66.1002C5.89811 66.1684 2.624 67.1009 2.61267 67.2828C2.8166 67.8742 4.6066 67.7832 2.78261 68.2722C2.78261 68.3404 2.80527 68.3973 2.8166 68.4655C3.28109 68.511 2.32944 68.8408 2.79394 68.8863C2.79394 69.0113 2.8166 69.1251 2.82792 69.2501C2.38609 69.4776 3.25843 69.3184 2.94122 69.6823C2.45406 70.3873 2.31811 71.3425 3.36039 71.3425C3.4397 71.1947 3.65495 71.1492 3.84755 71.172C4.25539 71.2061 4.19875 71.2629 4.51596 71.172C6.00008 74.049 7.80141 77.0057 6.53255 80.4627C6.72514 80.963 7.92603 81.1336 7.79008 81.7136C7.43887 81.9637 12.4803 80.3944 12.0951 80.7015C12.7975 80.963 7.94868 83.0099 8.45849 83.2146C8.60577 83.4762 8.65109 83.7832 8.74172 84.0561C8.57179 84.113 8.41318 84.1812 8.24324 84.2381C7.83539 85.6254 9.38748 87.0696 7.33691 88.0362C10.2258 87.5359 9.11558 87.57 9.03628 90.0263C10.0672 89.9012 11.2001 89.8443 12.3331 89.6283C13.5906 89.3895 12.0951 91.2999 13.33 90.8109C21.9855 87.5131 23.4129 89.5487 16.5475 91.4932C15.7771 91.7207 16.6155 92.2779 17.1706 92.7441C17.9976 93.4378 19.8556 92.9716 20.3767 92.0163C20.5693 92.3234 20.7506 92.6077 20.9319 92.8806C20.7959 92.8806 20.6713 92.8806 20.5353 92.8692C20.2861 93.4947 18.768 93.0171 18.768 93.597C19.2098 95.7122 23.107 94.1542 25.0217 93.7221C26.1886 93.29 27.3894 94.484 28.5677 94.0291C30.1537 93.4264 31.8418 94.0974 33.4732 93.7448C37.6536 93.0967 41.6755 92.312 45.6973 90.8678C47.8045 90.4584 49.7984 90.5949 51.8377 90.5949C54.7719 90.3902 57.7175 89.0711 60.6517 89.2416C65.4326 89.0256 73.0798 89.9808 77.0563 88.275C77.3848 88.3205 77.7813 88.4911 78.0306 88.366C79.8659 87.4563 81.5993 88.5934 83.4459 88.1499C86.6747 87.9339 90.0055 89.0028 93.2796 88.1613C96.3384 89.3781 97.6186 87.3426 99.7485 88.2068C100.949 88.8323 101.731 88.8209 102.445 88.0817C103.634 88.2409 104.654 88.4684 105.674 88.5025C106.478 88.5366 107.418 88.0476 108.075 88.3092C110.273 89.1962 112.482 88.9232 114.703 88.9005C122.225 88.6162 129.635 90.1855 136.863 89.8898C138.664 89.8443 140.307 91.7207 142.085 91.7093C143.377 91.6979 144.736 90.6858 146.028 90.6972C147.002 90.7313 148.248 91.3909 149.03 90.9133C150.99 91.6752 152.576 92.9829 154.717 92.5394C155.601 92.9716 156.507 92.9147 157.255 93.0853C157.482 92.8806 157.686 92.6531 157.878 92.4485C157.946 92.4485 158.003 92.4485 158.071 92.4485C158.377 92.7327 159.181 92.801 159.997 92.6986C160.597 93.7221 160.314 93.5288 161.368 93.4378C161.809 93.5174 162.297 92.9488 162.738 93.0284C166.488 93.7676 170.861 93.4492 174.509 93.6084C174.883 92.4144 174.464 92.1073 173.444 91.027C173.784 90.9133 174.419 90.9474 174.713 90.9019C175.166 90.6404 175.948 88.3546 176.515 87.7292C179.245 84.7157 178.248 85.1592 178.633 84.5337C180.491 85.2274 180.095 81.5544 179.789 81.1336C179.324 80.474 176.707 76.9943 176.56 75.0042C176.537 73.3895 180.151 73.6851 180.083 72.059C180.197 69.9779 182.338 69.0682 184.116 68.8863C185.986 68.8863 184.536 67.0327 184.615 65.9182C186.11 63.9623 185.227 64.7015 184.807 62.6659C185.136 61.6652 183.72 60.6645 184.162 59.6752C186.552 57.6396 188.195 57.5941 187.64 53.8074C186.983 53.4776 186.178 53.0682 185.363 52.6588L185.261 52.6816Z" fill="#CDE7FF"/>
</g>
<defs>
<filter id="filter0_d_17_147" x="0.522266" y="0.757617" width="193.376" height="100.073" filterUnits="userSpaceOnUse" color-interpolation-filters="sRGB">
<feFlood flood-opacity="0" result="BackgroundImageFix"/>
<feColorMatrix in="SourceAlpha" type="matrix" values="0 0 0 0 0 0 0 0 0 0 0 0 0 0 0 0 0 0 127 0" result="hardAlpha"/>
<feOffset dx="2.05" dy="2.05"/>
<feGaussianBlur stdDeviation="2.05"/>
<feColorMatrix type="matrix" values="0 0 0 0 0.184314 0 0 0 0 0.529412 0 0 0 0 1 0 0 0 0.3 0"/>
<feBlend mode="normal" in2="BackgroundImageFix" result="effect1_dropShadow_17_147"/>
<feBlend mode="normal" in="SourceGraphic" in2="effect1_dropShadow_17_147" result="shape"/>
</filter>
</defs>
</svg>
